<svg width="77" height="57" viewBox="0 0 77 57" fill="none" xmlns="http://www.w3.org/2000/svg">
<rect y="1" width="11" height="55" rx="5.5" fill="white"/>
<mask id="path-2-inside-1" fill="white">
<path d="M36.175 8.42334C34.747 6.09728 35.4662 3.00834 38.0038 2.00315C42.8059 0.100932 48.0662 -0.472102 53.221 0.393727C60.0112 1.53426 66.1589 5.09442 70.5278 10.4161C74.8967 15.7378 77.1913 22.4612 76.9875 29.3435C76.7837 36.2258 74.0953 42.8017 69.4192 47.8555C64.7431 52.9094 58.3955 56.0996 51.5497 56.8364C44.7039 57.5731 37.8229 55.8067 32.1784 51.8636C26.534 47.9205 22.5079 42.0673 20.8444 35.3859C19.5815 30.3138 19.7449 25.0249 21.2691 20.0897C22.0745 17.4819 25.0984 16.5254 27.5282 17.7687V17.7687C29.9579 19.012 30.8455 21.9942 30.2833 24.6651C29.708 27.398 29.7506 30.2468 30.4355 32.9978C31.5222 37.362 34.152 41.1853 37.8389 43.7609C41.5258 46.3365 46.0204 47.4904 50.492 47.0091C54.9637 46.5278 59.1099 44.444 62.1643 41.1429C65.2187 37.8417 66.9747 33.5464 67.1078 29.051C67.2409 24.5555 65.7421 20.1638 62.8884 16.6877C60.0347 13.2117 56.019 10.8862 51.5837 10.1412C48.7878 9.67157 45.9443 9.85 43.2642 10.6355C40.645 11.4031 37.6029 10.7494 36.175 8.42334V8.42334Z"/>
</mask>
<path d="M36.175 8.42334C34.747 6.09728 35.4662 3.00834 38.0038 2.00315C42.8059 0.100932 48.0662 -0.472102 53.221 0.393727C60.0112 1.53426 66.1589 5.09442 70.5278 10.4161C74.8967 15.7378 77.1913 22.4612 76.9875 29.3435C76.7837 36.2258 74.0953 42.8017 69.4192 47.8555C64.7431 52.9094 58.3955 56.0996 51.5497 56.8364C44.7039 57.5731 37.8229 55.8067 32.1784 51.8636C26.534 47.9205 22.5079 42.0673 20.8444 35.3859C19.5815 30.3138 19.7449 25.0249 21.2691 20.0897C22.0745 17.4819 25.0984 16.5254 27.5282 17.7687V17.7687C29.9579 19.012 30.8455 21.9942 30.2833 24.6651C29.708 27.398 29.7506 30.2468 30.4355 32.9978C31.5222 37.362 34.152 41.1853 37.8389 43.7609C41.5258 46.3365 46.0204 47.4904 50.492 47.0091C54.9637 46.5278 59.1099 44.444 62.1643 41.1429C65.2187 37.8417 66.9747 33.5464 67.1078 29.051C67.2409 24.5555 65.7421 20.1638 62.8884 16.6877C60.0347 13.2117 56.019 10.8862 51.5837 10.1412C48.7878 9.67157 45.9443 9.85 43.2642 10.6355C40.645 11.4031 37.6029 10.7494 36.175 8.42334V8.42334Z" stroke="white" stroke-width="18" mask="url(#path-2-inside-1)"/>
<circle cx="48" cy="28" r="7" fill="white"/>
</svg>
